<svg xmlns="http://www.w3.org/2000/svg" xmlns:xlink="http://www.w3.org/1999/xlink" version="1.1" id="Capa_1" x="0px" y="0px" viewBox="0 0 512 512" style="enable-background:new 0 0 512 512;" xml:space="preserve">
	<g transform="scale(0.95) translate(25,25)">
        <g transform="scale(1.4)">
            <g transform="scale(1.1) translate(-15,-15)">
                <path d="M317.306,54.369C257.93,54.369,212.443,37.405,173.977,0C135.516,37.405,90.031,54.369,30.66,54.369  c0,97.401-20.155,236.936,143.317,293.597C337.46,291.304,317.306,151.77,317.306,54.369z" style="stroke: rgb(0, 0, 0); fill: rgb(255, 255, 255);"></path>
            </g>
            <g>
                <path d="M317.306,54.369C257.93,54.369,212.443,37.405,173.977,0C135.516,37.405,90.031,54.369,30.66,54.369  c0,97.401-20.155,236.936,143.317,293.597C337.46,291.304,317.306,151.77,317.306,54.369z" style="stroke: rgb(0, 0, 0);"></path>
            </g>
        </g>
        <g transform="scale(1) translate(0,-2)">
            <g>
                <path d="M400.268,175.599c-1.399-3.004-4.412-4.932-7.731-4.932h-101.12l99.797-157.568c1.664-2.628,1.766-5.956,0.265-8.678    C389.977,1.69,387.109,0,384.003,0H247.47c-3.234,0-6.187,1.826-7.637,4.719l-128,256c-1.323,2.637-1.178,5.777,0.375,8.294    c1.562,2.517,4.301,4.053,7.262,4.053h87.748l-95.616,227.089c-1.63,3.883-0.179,8.388,3.413,10.59    c1.382,0.845,2.918,1.254,4.446,1.254c2.449,0,4.864-1.05,6.537-3.029l273.067-324.267    C401.206,182.161,401.667,178.611,400.268,175.599z" style="fill: rgb(255, 218, 68);"></path>
            </g>
        </g>
    </g>
</svg>
